<?xml version="1.0" standalone="no"?>
<!DOCTYPE svg PUBLIC "-//W3C//DTD SVG 20010904//EN"
 "http://www.w3.org/TR/2001/REC-SVG-20010904/DTD/svg10.dtd">
<svg version="1.0" xmlns="http://www.w3.org/2000/svg"
 width="300.000000pt" height="300.000000pt" viewBox="0 0 300.000000 300.000000"
 preserveAspectRatio="xMidYMid meet">
<metadata>
Created by potrace 1.14, written by Peter Selinger 2001-2017
</metadata>
<g transform="translate(0.000000,300.000000) scale(0.100000,-0.100000)"
fill="#000000" stroke="none">
<path d="M290 1645 l0 -1355 1355 0 1355 0 0 23 0 24 -202 -1 c-112 -1 -210 2
-218 5 -13 6 -15 120 -15 962 l0 955 28 22 c16 13 27 31 27 46 0 25 -40 74
-60 74 -22 0 -70 -31 -70 -45 0 -13 -134 -15 -1074 -15 l-1074 0 -3 28 c-2 15
-4 163 -3 330 l1 302 -24 0 -23 0 0 -1355z m2196 663 c10 -10 -564 -583 -586
-584 -41 -3 -69 -15 -75 -34 -5 -15 -15 -20 -41 -20 -23 0 -34 -5 -34 -15 0
-10 8 -14 23 -11 69 11 47 -17 -242 -305 -255 -255 -292 -289 -320 -289 -28 0
-71 -29 -71 -47 0 -10 -787 -9 -796 0 -7 7 -12 585 -6 623 3 17 10 20 33 18
20 -3 29 1 29 11 0 10 -10 15 -32 15 l-33 0 2 322 c1 178 2 323 2 324 5 5
2141 -3 2147 -8z m49 -1966 c-3 -3 -147 -5 -321 -5 -259 0 -318 3 -325 14 -8
12 -10 12 -18 0 -8 -12 -60 -14 -303 -13 -161 0 -305 1 -320 1 l-28 1 0 284 0
284 31 31 c23 23 29 36 24 52 -6 18 36 65 281 310 159 159 295 289 301 289 8
0 13 -14 13 -35 0 -19 5 -35 10 -35 6 0 10 16 10 35 0 19 4 35 10 35 22 0 51
45 46 71 -4 23 28 58 292 320 l297 294 3 -964 c1 -530 0 -966 -3 -969z m-1412
629 c17 -1 27 -6 27 -16 0 -9 10 -20 23 -26 l24 -11 0 -289 c0 -159 -3 -289
-6 -290 -8 -1 -799 -1 -831 0 l-25 1 1 312 0 312 23 6 c17 4 636 5 764 1z"/>
<path d="M492 1658 c6 -18 88 -19 88 -2 0 10 -14 14 -46 14 -31 0 -44 -4 -42
-12z"/>
<path d="M673 1658 c2 -8 20 -13 42 -13 22 0 40 5 43 13 2 8 -10 12 -43 12
-33 0 -45 -4 -42 -12z"/>
<path d="M853 1658 c2 -8 20 -13 42 -13 22 0 40 5 43 13 2 8 -10 12 -43 12
-33 0 -45 -4 -42 -12z"/>
<path d="M1033 1658 c2 -8 20 -13 42 -13 22 0 40 5 43 13 2 8 -10 12 -43 12
-33 0 -45 -4 -42 -12z"/>
<path d="M1213 1658 c2 -8 20 -13 42 -13 22 0 40 5 43 13 2 8 -10 12 -43 12
-33 0 -45 -4 -42 -12z"/>
<path d="M1393 1658 c2 -8 20 -13 42 -13 22 0 40 5 43 13 2 8 -10 12 -43 12
-33 0 -45 -4 -42 -12z"/>
<path d="M1572 1658 c4 -12 53 -19 76 -11 27 11 9 23 -34 23 -31 0 -44 -4 -42
-12z"/>
<path d="M2016 1649 c-32 -37 -40 -68 -32 -114 9 -49 25 -53 19 -5 -6 46 19
124 45 140 9 5 12 10 5 10 -6 0 -23 -14 -37 -31z"/>
<path d="M2457 1640 c6 -46 -19 -124 -45 -140 -9 -5 -12 -10 -5 -10 16 0 62
56 69 86 7 28 -3 91 -15 99 -5 3 -7 -13 -4 -35z"/>
<path d="M2077 1613 c-10 -10 -8 -25 2 -18 14 8 23 -12 16 -35 -4 -12 -15 -20
-28 -20 -16 0 -18 -3 -9 -12 9 -9 16 -7 32 7 18 16 20 16 20 2 0 -21 23 -22
40 -2 11 13 10 14 -3 10 -19 -8 -30 9 -22 36 4 12 12 18 21 15 8 -3 14 1 14 9
0 19 -9 19 -32 -2 -17 -15 -18 -15 -18 0 0 17 -21 23 -33 10z"/>
<path d="M2289 1598 c-11 -21 -11 -22 4 -9 15 12 17 11 17 -3 0 -22 1 -28 11
-53 10 -26 -20 -60 -38 -42 -8 8 -13 8 -18 0 -12 -20 25 -24 46 -5 21 19 69
105 69 124 0 5 -4 10 -10 10 -5 0 -10 -10 -10 -22 0 -13 -4 -29 -9 -37 -6 -10
-12 -4 -21 23 -13 42 -24 45 -41 14z"/>
<path d="M2196 1542 c-3 -6 -1 -14 4 -17 8 -5 5 -14 -6 -26 -16 -18 -16 -19
-1 -14 9 4 19 16 23 27 7 22 -10 47 -20 30z"/>
<path d="M1877 1433 c-11 -10 -8 -93 3 -93 6 0 10 23 10 50 0 51 -1 55 -13 43z"/>
<path d="M1877 1253 c-11 -10 -8 -93 3 -93 6 0 10 23 10 50 0 51 -1 55 -13 43z"/>
<path d="M1870 1030 c0 -27 5 -50 10 -50 6 0 10 23 10 50 0 28 -4 50 -10 50
-5 0 -10 -22 -10 -50z"/>
<path d="M1870 856 c0 -25 5 -48 10 -51 6 -4 10 13 10 44 0 28 -4 51 -10 51
-5 0 -10 -20 -10 -44z"/>
<path d="M1870 676 c0 -25 5 -48 10 -51 6 -4 10 13 10 44 0 28 -4 51 -10 51
-5 0 -10 -20 -10 -44z"/>
<path d="M1870 489 c0 -31 4 -48 10 -44 6 3 10 26 10 51 0 24 -4 44 -10 44 -5
0 -10 -23 -10 -51z"/>
<path d="M52 2340 c-7 -12 -8 -20 -2 -20 5 0 10 5 10 12 0 24 17 -8 28 -50 9
-39 8 -46 -10 -64 -15 -15 -22 -17 -28 -8 -4 7 -13 9 -19 6 -16 -10 -4 -26 19
-26 27 0 110 121 110 160 0 25 -18 7 -24 -25 -10 -49 -21 -51 -35 -5 -13 44
-30 51 -49 20z"/>
<path d="M210 2290 c-8 -5 -10 -10 -4 -10 14 0 14 -73 0 -82 -6 -4 3 -8 19 -8
17 0 25 4 18 8 -6 4 -13 29 -15 54 -2 39 -6 46 -18 38z"/>
<path d="M52 1000 c-7 -12 -8 -20 -2 -20 5 0 10 5 10 12 0 24 17 -7 27 -49 9
-36 8 -45 -10 -63 -14 -16 -22 -19 -27 -10 -4 7 -13 11 -19 9 -7 -3 -7 -9 -1
-19 16 -26 59 8 96 75 34 61 41 85 25 85 -5 0 -12 -16 -15 -35 -10 -49 -21
-51 -35 -5 -13 44 -30 51 -49 20z"/>
<path d="M202 948 c-32 -32 -1 -116 33 -88 26 22 14 100 -15 100 -3 0 -11 -5
-18 -12z m36 -38 c4 -38 -14 -63 -28 -40 -11 18 -13 64 -3 74 14 14 28 -1 31
-34z"/>
<path d="M1142 198 c-17 -17 -15 -33 2 -19 11 9 15 6 20 -15 9 -33 -10 -57
-37 -48 -13 4 -18 2 -15 -7 7 -20 24 -22 41 -5 13 14 16 14 27 1 18 -21 38
-18 51 8 9 18 9 20 -2 10 -18 -18 -27 -16 -34 7 -8 26 11 61 30 54 9 -4 15 0
15 10 0 21 -19 20 -36 -1 -13 -17 -15 -17 -25 0 -12 20 -21 21 -37 5z"/>
<path d="M2482 198 c-17 -17 -15 -33 2 -19 11 9 15 7 19 -10 8 -29 -9 -60 -30
-57 -9 2 -18 -3 -20 -9 -7 -20 35 -15 47 5 10 16 10 16 20 0 6 -10 16 -18 21
-18 12 0 39 25 39 36 0 5 -5 3 -12 -4 -17 -17 -26 -15 -33 8 -8 26 11 61 30
54 9 -4 15 0 15 10 0 21 -14 20 -35 -1 -16 -16 -18 -16 -27 0 -11 20 -20 21
-36 5z"/>
<path d="M1266 134 c-9 -23 -7 -67 4 -84 15 -23 44 1 48 39 5 49 -37 85 -52
45z m39 -40 c0 -28 -4 -39 -15 -39 -16 0 -26 45 -16 72 11 28 31 7 31 -33z"/>
<path d="M2625 139 c-17 -6 -17 -8 -3 -8 14 -1 17 -9 16 -38 -1 -21 -6 -41
-12 -45 -6 -4 3 -8 19 -8 17 0 25 4 18 8 -6 4 -13 28 -15 53 -3 42 -5 45 -23
38z"/>
</g>
</svg>
